<svg xmlns="http://www.w3.org/2000/svg" viewBox="0 0 1024 1024">
  <defs>
    <linearGradient id="bg" x1="0" y1="0" x2="1" y2="1">
      <stop offset="0" stop-color="#6366f1"/>
      <stop offset="0.55" stop-color="#4338ca"/>
      <stop offset="1" stop-color="#312e81"/>
    </linearGradient>
  </defs>

  <!-- rounded background (macOS squircle proportions) -->
  <rect x="84" y="84" width="856" height="856" rx="196" fill="url(#bg)"/>

  <!-- starfield -->
  <g fill="#fde68a" opacity="0.75">
    <circle cx="250" cy="230" r="8"/>
    <circle cx="430" cy="180" r="5"/>
    <circle cx="800" cy="240" r="7"/>
    <circle cx="690" cy="800" r="6"/>
    <circle cx="300" cy="820" r="5"/>
    <circle cx="820" cy="760" r="5"/>
  </g>

  <!-- whole plane+banner assembly, tilted as one connected unit -->
  <g transform="rotate(-9 512 512)">
    <!-- banner: pink hard shadow + gold ribbon + indigo "text" lines -->
    <rect x="200" y="448" width="370" height="156" rx="18" fill="#f43f5e"/>
    <rect x="190" y="434" width="370" height="156" rx="18" fill="#facc15" stroke="#1e1b4b" stroke-width="11"/>
    <rect x="230" y="476" width="270" height="24" rx="12" fill="#1e1b4b"/>
    <rect x="230" y="524" width="196" height="24" rx="12" fill="#1e1b4b"/>

    <!-- tow lines to the plane -->
    <g stroke="#1e1b4b" stroke-width="9" stroke-linecap="round">
      <line x1="560" y1="486" x2="648" y2="492"/>
      <line x1="560" y1="540" x2="648" y2="528"/>
    </g>

    <!-- airplane (bold top-view silhouette, nose to the right) -->
    <path d="M912 512 L772 488 L726 488 L628 404 L690 480 L658 480 L600 446 L644 488 L606 488 L606 536 L644 536 L600 578 L658 544 L690 544 L628 620 L726 536 L772 536 Z"
          fill="#f8fafc" stroke="#1e1b4b" stroke-width="6" stroke-linejoin="round"/>
    <!-- pink fuselage stripe + cockpit -->
    <rect x="624" y="505" width="250" height="14" rx="7" fill="#f43f5e"/>
    <circle cx="858" cy="512" r="11" fill="#1e1b4b"/>
  </g>
</svg>
